<svg width="28" height="28" viewBox="0 0 28 28" fill="none" xmlns="http://www.w3.org/2000/svg">
<path d="M27.9891 15.3816C26.0495 7.62073 19.3975 1.35794 12.3837 5.20517C12.3837 5.20517 8.84985 4.03608 8.34032 3.68285C7.84408 3.339 7.0626 2.97639 7.62761 4.02357C7.95817 4.63469 8.3114 5.33021 9.50551 6.61575C6.10763 9.99248 7.10714 14.1375 5.90679 16.8633C4.88773 19.1781 3.89291 20.5621 4.88305 22.3149C5.91226 24.1358 8.57867 25.0204 10.3675 23.1433C11.3397 22.1219 10.7356 21.6296 12.8151 19.8595C14.9431 19.4352 16.2489 18.4599 16.2489 16.4406C16.2489 16.4406 16.8702 16.142 17.6759 21.1365C18.0323 23.3387 17.5532 25.5378 17.6454 28.0002H27.9891V15.3816Z" fill="#C1CDD5"/>
<path d="M24.7906 4.6035C25.2055 5.6288 25.4533 7.50279 25.2556 8.75944C25.1383 5.69367 22.7642 3.61649 21.8358 3.13822C20.115 2.24968 18.4192 2.37315 16.5225 2.53492C16.6093 2.66621 16.8374 3.17104 16.7726 3.74387C16.3983 3.06007 15.5191 2.63417 14.9494 2.75061C13.8866 2.96708 12.948 3.27967 12.2337 3.654C11.8399 3.73371 11.2577 3.97675 10.3801 4.51441C8.88666 5.42952 7.11739 7.90448 5.11523 7.25819C5.92954 9.21194 7.95279 8.70004 7.95279 8.70004C8.89604 7.17614 11.1311 5.74681 12.773 5.22087C18.7271 3.85718 22.6306 7.90838 24.832 12.5652C25.4322 13.8351 26.8724 18.1387 27.99 20.6082V8.42804C27.4046 7.61689 26.9889 6.06956 24.7906 4.6035Z" fill="#60379A"/>
<path d="M10.6311 2.72791C11.0789 3.34372 13.16 3.34841 14.2228 5.71317C15.2848 8.07791 12.7044 7.76846 11.7689 6.67439C10.7264 5.4545 10.2599 4.43701 10.077 3.55472C9.98007 3.08895 9.72452 1.48457 10.6311 2.72791Z" fill="#C1CDD5"/>
<path d="M10.9593 3.74365C11.7064 4.19144 12.6505 4.9276 12.9263 5.77238C13.2006 6.61716 12.3738 6.46868 11.8721 5.73956C11.3712 5.00965 11.1375 4.19613 10.8679 3.97106C10.5975 3.74521 10.9593 3.74365 10.9593 3.74365Z" fill="#758795"/>
<path d="M11.7784 11.9874C12.1866 11.9874 12.5176 11.6564 12.5176 11.2481C12.5176 10.8398 12.1866 10.5088 11.7784 10.5088C11.3701 10.5088 11.0391 10.8398 11.0391 11.2481C11.0391 11.6564 11.3701 11.9874 11.7784 11.9874Z" fill="#292F33"/>
<path d="M6.60002 20.8699C6.69302 21.3841 6.45857 21.8569 6.07643 21.9256C5.6935 21.9952 5.30745 21.6349 5.21367 21.1207C5.12068 20.6057 5.3559 20.1321 5.73805 20.0626C6.12097 19.9938 6.50703 20.3541 6.60002 20.8699Z" fill="#53626C"/>
<path d="M10.6749 6.21465L10.6772 6.21309L10.6733 6.20762L10.6608 6.19668C10.6546 6.19121 10.6522 6.18183 10.646 6.17714C10.6389 6.17167 10.6296 6.16855 10.6218 6.16308C9.71914 5.39722 0.585186 -0.520927 0.0272084 0.0370434C-0.542492 0.606743 8.01708 7.47909 8.5688 7.89953L8.5774 7.90422L9.00018 8.2473C9.00643 8.2528 9.00799 8.2614 9.01425 8.266C9.0244 8.2739 9.03613 8.2778 9.04707 8.2848L9.0838 8.3145L9.07676 8.302C9.5183 8.5841 10.1919 8.3911 10.6233 7.83935C11.0602 7.2806 11.0742 6.56945 10.6749 6.21465Z" fill="#EE7C0E"/>
<path d="M3.511 1.62415L3.51803 1.60461C3.2828 1.46863 3.05383 1.33812 2.83189 1.21387C2.81938 1.24357 2.8147 1.26779 2.79985 1.29983C2.71232 1.48973 2.59979 1.67807 2.46459 1.85937C2.33487 2.03442 2.19186 2.19072 2.04181 2.32435C2.02618 2.33842 2.01368 2.34467 1.99805 2.35796C2.18404 2.52988 2.38019 2.7065 2.58025 2.88624C2.76312 2.72213 2.93661 2.53535 3.09134 2.32592C3.25858 2.10163 3.40003 1.86562 3.511 1.62415ZM5.28887 3.92561C5.528 3.6052 5.69602 3.28323 5.80464 2.97845C5.57645 2.83701 5.34826 2.69712 5.12007 2.55802C5.06067 2.7909 4.92704 3.10427 4.66212 3.45828C4.41986 3.78416 4.18307 3.99047 3.98692 4.11864C4.18932 4.29291 4.39329 4.46639 4.59569 4.63832C4.84108 4.44764 5.07943 4.20694 5.28887 3.92561ZM7.56923 5.58626C7.85447 5.20333 8.04515 4.81806 8.14284 4.46327L7.43481 4.00532C7.41684 4.23664 7.3004 4.63832 6.9417 5.11893C6.61973 5.55187 6.3001 5.78085 6.08207 5.88322L6.7182 6.40759C7.01594 6.20754 7.3129 5.93011 7.56923 5.58626Z" fill="#C43512"/>
</svg>
